<?xml version="1.0" standalone="no"?>
<!DOCTYPE svg PUBLIC "-//W3C//DTD SVG 20010904//EN"
 "http://www.w3.org/TR/2001/REC-SVG-20010904/DTD/svg10.dtd">
<svg version="1.0" xmlns="http://www.w3.org/2000/svg"
 width="303.000000pt" height="307.000000pt" viewBox="0 0 303.000000 307.000000"
 preserveAspectRatio="xMidYMid meet">
<defs>
    <linearGradient id="gradient" x1="0%" y1="0%" x2="100%" y2="0%">
        <stop offset="0%" stop-color="#78ffd6" />
        <stop offset="100%" stop-color="#a8ff78" />
    </linearGradient>
</defs>
<g transform="translate(0.000000,307.000000) scale(0.100000,-0.100000)"
fill="url(#gradient)" stroke="none">
<path d="M1325 3055 c-315 -43 -590 -178 -833 -409 -127 -121 -233 -267 -326
-454 -165 -330 -203 -754 -94 -1054 11 -32 26 -63 33 -68 19 -16 96 -14 202 4
132 23 126 19 120 85 -3 31 -11 79 -18 106 -16 68 -16 374 0 450 53 251 184
500 350 666 213 211 517 325 816 305 175 -12 346 -61 460 -132 106 -66 84 -62
343 -57 179 4 240 9 251 19 12 11 0 28 -85 111 -253 250 -537 388 -879 428
-150 17 -215 17 -340 0z"/>
<path d="M1110 1467 c0 -603 3 -796 12 -805 9 -9 68 -12 205 -12 l193 0 0 470
c0 393 2 476 15 499 27 53 151 157 238 200 108 53 179 71 312 78 177 9 326
-28 414 -103 49 -42 104 -139 121 -213 27 -116 -7 -267 -80 -360 -77 -97 -166
-141 -298 -145 -46 -2 -88 -8 -94 -14 -37 -37 89 -176 214 -236 153 -74 363
-101 421 -56 36 28 139 242 176 365 82 270 87 468 20 669 -67 197 -199 316
-416 378 -103 29 -351 31 -488 4 -194 -38 -429 -136 -522 -219 -20 -18 -21
-18 -27 0 -3 10 -5 61 -5 113 0 52 0 114 0 138 l-1 42 -205 0 -205 0 0 -793z"/>
<path d="M422 760 c-148 -23 -162 -27 -162 -47 0 -30 107 -170 205 -269 260
-262 542 -400 890 -435 342 -34 672 47 957 237 116 77 207 158 193 172 -5 5
-48 19 -95 32 -47 13 -120 36 -163 52 -43 15 -95 28 -116 28 -35 0 -58 -8
-176 -60 -172 -77 -420 -108 -603 -75 -253 44 -401 120 -638 329 -51 46 -60
50 -112 53 -31 1 -112 -6 -180 -17z"/>
</g>
</svg>
