<svg xmlns="http://www.w3.org/2000/svg" width="16" height="16" viewBox="0 0 18 16">
  <path d="M9.752 6.193c.599.6 1.73.437 2.528-.362.798-.799.96-1.932.362-2.531-.599-.6-1.73-.438-2.528.361-.798.8-.96 1.933-.362 2.532Z"/>
  <path d="M15.811 3.312c-.363 1.534-1.334 3.626-3.64 6.218l-.24 2.408a2.56 2.56 0 0 1-.732 1.526L8.817 15.85a.51.51 0 0 1-.867-.434l.27-1.899c.04-.28-.013-.593-.131-.956a9.42 9.42 0 0 0-.249-.657l-.082-.202c-.815-.197-1.578-.662-2.191-1.277-.614-.615-1.079-1.379-1.275-2.195l-.203-.083a9.556 9.556 0 0 0-.655-.248c-.363-.119-.675-.172-.955-.132l-1.896.27A.51.51 0 0 1 .15 7.17l2.382-2.386c.41-.41.947-.67 1.524-.734h.006l2.4-.238C9.005 1.55 11.087.582 12.623.208c.89-.217 1.59-.232 2.08-.188.244.023.435.06.57.093.067.017.12.033.16.045.184.06.279.13.351.295l.029.073a3.475 3.475 0 0 1 .157.721c.055.485.051 1.178-.159 2.065Z" fill="var(--ifm-color-primary, #a8ff78)"/>
  <path d="M7.009 12.139a7.632 7.632 0 0 1-1.804-1.352A7.568 7.568 0 0 1 3.794 8.86c-1.102.992-1.965 5.054-1.839 5.18.125.126 3.936-.896 5.054-1.902Z" fill="var(--ifm-color-primary, #a8ff78)"/>
</svg>